<svg width="25" height="25" viewBox="0 0 25 25" fill="none" xmlns="http://www.w3.org/2000/svg">
<path fill-rule="evenodd" clip-rule="evenodd" d="M0.586061 1.586C0.961117 1.21106 1.46973 1.00043 2.00006 1.00043C2.53039 1.00043 3.03901 1.21106 3.41406 1.586L12.0001 10.172L20.5861 1.586C20.7706 1.39498 20.9912 1.24262 21.2353 1.1378C21.4793 1.03298 21.7417 0.977809 22.0073 0.975501C22.2728 0.973194 22.5362 1.0238 22.782 1.12436C23.0278 1.22492 23.2511 1.37343 23.4389 1.56121C23.6266 1.749 23.7751 1.9723 23.8757 2.21809C23.9763 2.46389 24.0269 2.72725 24.0246 2.9928C24.0223 3.25836 23.9671 3.5208 23.8623 3.76481C23.7574 4.00882 23.6051 4.22951 23.4141 4.414L14.8281 13L23.4141 21.586C23.7784 21.9632 23.98 22.4684 23.9754 22.9928C23.9709 23.5172 23.7605 24.0188 23.3897 24.3896C23.0189 24.7605 22.5173 24.9708 21.9929 24.9753C21.4685 24.9799 20.9633 24.7783 20.5861 24.414L12.0001 15.828L3.41406 24.414C3.03686 24.7783 2.53165 24.9799 2.00726 24.9753C1.48286 24.9708 0.98124 24.7605 0.610424 24.3896C0.239608 24.0188 0.0292694 23.5172 0.0247126 22.9928C0.0201557 22.4684 0.221745 21.9632 0.586061 21.586L9.17206 13L0.586061 4.414C0.211119 4.03895 0.000488281 3.53033 0.000488281 3C0.000488281 2.46967 0.211119 1.96106 0.586061 1.586Z" fill="#2F3367"/>
</svg>
