<svg width="40" height="40" viewBox="0 0 40 40" fill="none" xmlns="http://www.w3.org/2000/svg">
<path d="M26.6667 30C26.6667 30.3095 26.5805 30.6129 26.4178 30.8762C26.255 31.1395 26.0222 31.3523 25.7454 31.4907C25.4685 31.6291 25.1586 31.6877 24.8503 31.6599C24.5421 31.6321 24.2476 31.519 24 31.3333L10.6667 21.3333C10.4597 21.1781 10.2917 20.9768 10.176 20.7454C10.0602 20.5139 10 20.2587 10 20C10 19.7413 10.0602 19.4861 10.176 19.2546C10.2917 19.0232 10.4597 18.8219 10.6667 18.6667L24 8.66667C24.2476 8.48096 24.5421 8.36787 24.8503 8.34007C25.1586 8.31227 25.4685 8.37087 25.7454 8.50929C26.0222 8.64772 26.255 8.86049 26.4178 9.12379C26.5805 9.38708 26.6667 9.69049 26.6667 10V30Z" fill="#2F3367"/>
</svg>
