<svg width="40" height="40" viewBox="0 0 40 40" fill="none" xmlns="http://www.w3.org/2000/svg">
<path d="M13.3333 10C13.3333 9.69048 13.4195 9.38707 13.5822 9.12378C13.745 8.86048 13.9778 8.6477 14.2546 8.50928C14.5315 8.37086 14.8414 8.31227 15.1497 8.34006C15.4579 8.36786 15.7524 8.48095 16 8.66666L29.3333 18.6667C29.5403 18.8219 29.7083 19.0232 29.824 19.2546C29.9398 19.4861 30 19.7413 30 20C30 20.2587 29.9398 20.5139 29.824 20.7454C29.7083 20.9768 29.5403 21.1781 29.3333 21.3333L16 31.3333C15.7524 31.519 15.4579 31.6321 15.1497 31.6599C14.8414 31.6877 14.5315 31.6291 14.2546 31.4907C13.9778 31.3523 13.745 31.1395 13.5822 30.8762C13.4195 30.6129 13.3333 30.3095 13.3333 30L13.3333 10Z" fill="#2F3367"/>
</svg>
